<?xml version="1.0" standalone="no"?>
<!DOCTYPE svg PUBLIC "-//W3C//DTD SVG 20010904//EN"
 "http://www.w3.org/TR/2001/REC-SVG-20010904/DTD/svg10.dtd">
<svg version="1.0" xmlns="http://www.w3.org/2000/svg"
 width="1003.000000pt" height="1003.000000pt" viewBox="0 0 1003.000000 1003.000000"
 preserveAspectRatio="xMidYMid meet">
<metadata>
Created by potrace 1.11, written by Peter Selinger 2001-2013
</metadata>
<g transform="translate(0.000000,1003.000000) scale(0.100000,-0.100000)"
fill="#000000" stroke="none">
<path d="M6960 6440 l0 -1250 855 0 855 0 0 1250 0 1250 -855 0 -855 0 0
-1250z"/>
<path d="M3160 5690 l0 -500 855 0 855 0 0 500 0 500 -855 0 -855 0 0 -500z"/>
<path d="M7985 4955 c-38 -7 -103 -22 -142 -34 l-73 -22 0 -136 c0 -158 -14
-149 135 -87 75 31 105 38 178 42 152 8 227 -39 235 -146 9 -123 -79 -213
-268 -277 l-65 -22 -3 -152 -3 -151 161 0 160 0 0 103 0 103 65 28 c151 66
256 168 291 281 19 64 18 190 -2 248 -20 60 -88 135 -152 170 -116 63 -336 85
-517 52z"/>
<path d="M1260 4930 c0 -15 339 -1300 346 -1311 3 -5 88 -9 189 -9 165 0 185
2 193 18 5 9 53 188 107 397 54 209 101 383 104 387 3 4 53 -167 110 -380 58
-213 108 -395 113 -404 8 -16 27 -18 193 -18 101 0 186 3 189 8 6 10 346 1299
346 1312 0 6 -64 10 -174 10 l-174 0 -20 -87 c-11 -49 -55 -244 -98 -435 -43
-191 -81 -344 -84 -338 -3 5 -53 200 -110 434 l-105 426 -175 0 -175 0 -109
-422 c-60 -233 -112 -429 -115 -435 -4 -7 -46 173 -95 400 -48 226 -90 422
-93 435 -5 22 -7 22 -184 22 -116 0 -179 -4 -179 -10z"/>
<path d="M3270 4275 l0 -665 173 2 172 3 3 293 2 292 235 0 235 0 0 -295 0
-295 173 2 172 3 3 663 2 662 -175 0 -175 0 0 -240 0 -240 -235 0 -235 0 0
240 0 240 -175 0 -175 0 0 -665z"/>
<path d="M4543 4928 c3 -7 111 -186 241 -398 l236 -385 0 -268 0 -267 173 2
172 3 3 281 2 281 235 379 234 379 -187 3 c-165 2 -188 1 -199 -14 -7 -9 -65
-113 -130 -230 -64 -118 -120 -214 -123 -214 -4 0 -65 102 -136 228 l-130 227
-198 3 c-157 2 -197 0 -193 -10z"/>
<path d="M6530 4275 l0 -665 170 0 170 0 0 245 0 245 64 0 64 0 192 -245 193
-245 208 0 c115 0 209 3 209 8 0 4 -102 130 -225 280 -124 150 -225 276 -225
281 0 5 14 14 32 22 50 21 151 122 180 181 50 102 54 268 8 359 -28 54 -89
113 -149 144 -99 50 -147 55 -533 55 l-358 0 0 -665z m635 403 c44 -24 63 -48
74 -98 12 -54 1 -122 -26 -159 -10 -14 -40 -36 -65 -49 -39 -20 -63 -24 -160
-25 l-113 -2 -3 179 -2 178 132 -4 c96 -3 141 -9 163 -20z"/>
<path d="M7952 3733 l3 -118 183 -3 182 -2 0 120 0 120 -185 0 -186 0 3 -117z"/>
<path d="M2120 3322 c-195 -53 -297 -234 -269 -477 16 -143 93 -256 212 -311
57 -27 71 -29 182 -29 116 0 123 1 187 33 148 73 218 216 205 420 -3 48 -12
107 -21 132 -23 64 -80 143 -125 174 -97 68 -250 92 -371 58z m200 -157 c69
-36 104 -119 105 -250 0 -110 -20 -169 -75 -219 -46 -42 -96 -53 -153 -36 -87
26 -137 118 -137 255 0 102 23 171 75 222 40 41 46 43 99 43 31 0 70 -7 86
-15z"/>
<path d="M7372 3329 c-203 -40 -312 -202 -299 -446 4 -86 10 -112 35 -166 40
-87 91 -140 170 -179 64 -32 71 -33 187 -33 111 0 125 2 181 28 76 35 145 104
179 178 49 109 51 278 5 403 -26 68 -104 152 -171 183 -82 38 -193 51 -287 32z
m190 -174 c51 -37 80 -108 86 -205 8 -155 -33 -251 -122 -285 -88 -34 -168 1
-213 93 -24 50 -28 68 -28 152 0 134 29 208 99 252 41 25 139 22 178 -7z"/>
<path d="M1252 2918 l3 -403 103 -3 102 -3 0 176 0 175 160 0 161 0 -3 78 -3
77 -158 3 -158 3 3 72 3 72 173 3 172 2 0 75 0 75 -280 0 -280 0 2 -402z"/>
<path d="M2730 3045 c0 -159 5 -295 11 -325 18 -82 63 -139 143 -180 68 -35
71 -35 195 -35 111 0 132 3 179 24 31 14 69 42 92 69 65 73 70 104 70 434 l0
288 -105 0 -105 0 0 -289 c0 -284 0 -289 -23 -322 -40 -60 -142 -74 -200 -29
-41 33 -47 79 -47 369 l0 271 -105 0 -105 0 0 -275z"/>
<path d="M3560 2915 l0 -405 95 0 95 0 0 277 c0 152 3 273 8 269 4 -4 75 -128
157 -274 l151 -267 99 0 100 0 3 403 2 402 -95 0 -95 0 -2 -227 -3 -228 -129
228 -130 227 -128 0 -128 0 0 -405z"/>
<path d="M4420 2916 l0 -406 118 0 c201 0 328 16 398 50 74 36 146 110 182
188 24 51 27 68 27 172 0 110 -1 118 -33 182 -41 83 -120 158 -200 189 -51 20
-79 23 -274 27 l-218 4 0 -406z m363 243 c48 -13 102 -60 130 -113 17 -32 21
-59 22 -126 0 -105 -27 -168 -94 -215 -38 -27 -52 -30 -127 -34 l-84 -3 0 251
0 251 58 0 c31 0 74 -5 95 -11z"/>
<path d="M5411 3298 c-15 -41 -271 -781 -271 -784 0 -2 47 -4 104 -4 l104 0
26 85 27 85 128 0 128 0 25 -82 26 -83 106 -3 c58 -1 106 1 106 5 0 4 -62 186
-137 405 l-138 398 -113 0 c-108 0 -113 -1 -121 -22z m158 -336 c18 -57 35
-110 38 -118 4 -11 -10 -14 -77 -14 -74 0 -82 2 -77 18 31 110 72 230 77 224
4 -4 21 -53 39 -110z"/>
<path d="M5830 3245 l0 -75 120 0 120 0 2 -327 3 -328 102 -3 103 -3 2 328 3
328 123 3 123 3 -3 72 -3 72 -347 3 -348 2 0 -75z"/>
<path d="M6570 3250 l0 -70 60 0 60 0 0 -260 0 -259 -57 -3 -58 -3 0 -70 0
-70 223 -3 222 -2 0 75 0 75 -60 0 -60 0 0 260 0 260 60 0 60 0 0 70 0 70
-225 0 -225 0 0 -70z"/>
<path d="M7970 2915 l0 -405 95 0 95 0 2 278 3 277 155 -275 155 -275 100 0
100 0 3 403 2 402 -95 0 -95 0 -2 -227 -3 -228 -130 228 -129 227 -128 0 -128
0 0 -405z"/>
</g>
</svg>
